<svg width="189" height="238" viewBox="0 0 189 238" fill="none" xmlns="http://www.w3.org/2000/svg">
<g filter="url(#filter0_bd_3905_82)">
<path d="
	M178.694 196.301
	C182.668 193.275 185 188.567 185 183.573
	L185 16
	C185 7.16344 177.837 0 169 0
	L20 0
	C11.1634 0 4 7.16345 4 16
	L4 214
	C4 222.837 11.1635 230 20 230
	L129.049 230
	C132.551 230 135.957 228.851 138.743 226.729
	L178.694 196.301
	Z" fill="white" fill-opacity="0.05" shape-rendering="crispEdges"/>
<path d="M184.5 183.573C184.5 188.411 182.241 192.972 178.391 195.904L138.44 226.331C135.741 228.387 132.442 229.5 129.049 229.5L20 229.5C11.4396 229.5 4.5 222.56 4.5 214L4.5 16C4.5 7.43959 11.4396 0.5 20 0.5L169 0.5C177.56 0.5 184.5 7.43958 184.5 16L184.5 183.573Z" stroke="url(#paint0_linear_3905_82)" stroke-opacity="0.7" shape-rendering="crispEdges"/>
</g>
<defs>
<filter id="filter0_bd_3905_82" x="-6" y="-10" width="201" height="250" filterUnits="userSpaceOnUse" color-interpolation-filters="sRGB">
<feFlood flood-opacity="0" result="BackgroundImageFix"/>
<feGaussianBlur in="BackgroundImageFix" stdDeviation="5"/>
<feComposite in2="SourceAlpha" operator="in" result="effect1_backgroundBlur_3905_82"/>
<feColorMatrix in="SourceAlpha" type="matrix" values="0 0 0 0 0 0 0 0 0 0 0 0 0 0 0 0 0 0 127 0" result="hardAlpha"/>
<feOffset dy="4"/>
<feGaussianBlur stdDeviation="2"/>
<feComposite in2="hardAlpha" operator="out"/>
<feColorMatrix type="matrix" values="0 0 0 0 0 0 0 0 0 0 0 0 0 0 0 0 0 0 0.25 0"/>
<feBlend mode="normal" in2="effect1_backgroundBlur_3905_82" result="effect2_dropShadow_3905_82"/>
<feBlend mode="normal" in="SourceGraphic" in2="effect2_dropShadow_3905_82" result="shape"/>
</filter>
<linearGradient id="paint0_linear_3905_82" x1="165.09" y1="208.35" x2="18.5698" y2="-9.78639" gradientUnits="userSpaceOnUse">
<stop stop-color="#15BFFD"/>
<stop offset="1" stop-color="#9C37FD"/>
</linearGradient>
</defs>
</svg>
