<svg width="404" height="465" viewBox="0 0 404 465" fill="none" xmlns="http://www.w3.org/2000/svg">
<g filter="url(#filter0_d_30_141)">
<path d="M295.646 249.577L295.651 249.575C314.921 241.781 335.27 231.461 350.799 215.057C366.418 198.558 377 176.078 377 144.353C377 112.02 365.38 82.5173 338.977 61.169C312.659 39.889 272.011 27 214.472 27C147.557 27 100.63 44.2539 70.403 71.7038C40.1506 99.1771 27 136.527 27 175.919V188C27 191.866 30.134 195 34 195H111.855C115.721 195 118.855 191.866 118.855 188V168.772C118.855 150.331 123.997 137.17 137.104 128.381C150.536 119.376 172.821 114.596 208.091 114.596C241.663 114.596 260.705 118.487 271.295 124.48C276.496 127.424 279.594 130.842 281.435 134.541C283.296 138.281 283.985 142.539 283.985 147.331C283.985 156.634 280.989 163.114 274.818 168.708C268.436 174.494 258.595 179.392 244.668 185.052L244.658 185.056L204.083 201.719C204.077 201.722 204.071 201.724 204.066 201.726C185.954 208.926 169.103 217.751 156.772 230.488C144.339 243.331 136.639 260.011 136.639 282.529V299.375C136.639 303.241 139.773 306.375 143.639 306.375H222.654C226.52 306.375 229.654 303.241 229.654 299.375V296.228C229.654 288.969 230.52 283.93 233.533 279.637C236.593 275.277 242.188 271.235 252.735 266.843C252.74 266.84 252.746 266.838 252.751 266.836L295.646 249.577ZM236.616 431V341.919C236.616 338.053 233.482 334.919 229.616 334.919H137.838C133.972 334.919 130.838 338.053 130.838 341.919V431C130.838 434.866 133.972 438 137.838 438H229.616C233.482 438 236.616 434.866 236.616 431Z" stroke="url(#paint0_linear_30_141)" stroke-opacity="0.7" stroke-width="6"/>
</g>
<defs>
<filter id="filter0_d_30_141" x="0.6" y="0.6" width="402.8" height="463.8" filterUnits="userSpaceOnUse" color-interpolation-filters="sRGB">
<feFlood flood-opacity="0" result="BackgroundImageFix"/>
<feColorMatrix in="SourceAlpha" type="matrix" values="0 0 0 0 0 0 0 0 0 0 0 0 0 0 0 0 0 0 127 0" result="hardAlpha"/>
<feOffset/>
<feGaussianBlur stdDeviation="11.7"/>
<feColorMatrix type="matrix" values="0 0 0 0 0.419608 0 0 0 0 0.333333 0 0 0 0 0.847059 0 0 0 1 0"/>
<feBlend mode="normal" in2="BackgroundImageFix" result="effect1_dropShadow_30_141"/>
<feBlend mode="normal" in="SourceGraphic" in2="effect1_dropShadow_30_141" result="shape"/>
</filter>
<linearGradient id="paint0_linear_30_141" x1="67.84" y1="68.1235" x2="317.888" y2="469.92" gradientUnits="userSpaceOnUse">
<stop stop-color="#15BFFD"/>
<stop offset="1" stop-color="#9C37FD"/>
</linearGradient>
</defs>
</svg>
